<?xml version="1.0" encoding="UTF-8"?>
<svg xmlns="http://www.w3.org/2000/svg" xmlns:xlink="http://www.w3.org/1999/xlink" width="252.72pt" height="252.4pt" viewBox="0 0 252.72 252.4" version="1.1">
<defs>
<clipPath id="clip1">
  <path d="M 0 0 L 252.71875 0 L 252.71875 121 L 0 121 Z M 0 0 "/>
</clipPath>
<clipPath id="clip2">
  <path d="M 0 131 L 252.71875 131 L 252.71875 252.398438 L 0 252.398438 Z M 0 131 "/>
</clipPath>
</defs>
<g id="surface1">
<path style=" stroke:none;fill-rule:nonzero;fill:rgb(21.598816%,23.098755%,59.199524%);fill-opacity:1;" d="M 183.382813 63.28125 C 175.03125 67.097656 152.0625 75.734375 127.511719 63.710938 C 120.023438 68.96875 95.328125 74.945313 72.359375 63.28125 C 73.871094 86.824219 76.175781 107.5625 81.792969 127.070313 C 90.144531 156.230469 105.121094 181.433594 127.726563 206.34375 C 143.0625 189.210938 156.886719 169.769531 166.753906 146.511719 C 176.472656 123.542969 182.304688 96.6875 183.382813 63.28125 "/>
<path style=" stroke:none;fill-rule:nonzero;fill:rgb(100%,100%,100%);fill-opacity:1;" d="M 176.832031 71.5625 C 169.488281 74.945313 150.121094 79.046875 127.945313 70.265625 C 120.886719 74.007813 99.359375 78.472656 79.054688 72.351563 C 82.222656 121.886719 94.105469 158.394531 127.726563 197.34375 C 159.914063 161.054688 174.601563 119.800781 176.832031 71.5625 "/>
<path style=" stroke:none;fill-rule:nonzero;fill:rgb(21.598816%,23.098755%,59.199524%);fill-opacity:1;" d="M 84.023438 78.617188 C 97.703125 80.703125 111.601563 82.144531 127.726563 75.449219 C 146.449219 82.792969 160.199219 80.488281 171.503906 78.472656 C 170.28125 94.671875 167.328125 110.367188 163.078125 125.488281 L 143.28125 125.632813 L 143.28125 109.289063 C 143.425781 106.046875 143.496094 104.679688 148.175781 104.464844 L 148.175781 102.878906 L 131.542969 102.808594 L 131.542969 104.394531 C 136.511719 104.753906 136.296875 105.6875 136.65625 109.289063 L 136.65625 125.703125 L 119.519531 125.703125 C 119.519531 120.230469 119.59375 114.761719 119.59375 109.214844 C 119.808594 106.121094 119.808594 104.609375 124.417969 104.464844 L 124.488281 102.878906 L 107.855469 102.808594 C 107.855469 103.382813 107.929688 103.960938 107.929688 104.464844 C 111.527344 104.535156 112.894531 105.183594 112.96875 109.359375 L 112.894531 125.632813 C 106.054688 125.632813 99.289063 125.632813 92.449219 125.632813 C 88.199219 110.082031 85.535156 95.753906 84.023438 78.617188 "/>
<path style=" stroke:none;fill-rule:nonzero;fill:rgb(90.99884%,15.299988%,24.699402%);fill-opacity:1;" d="M 93.816406 130.3125 L 112.96875 130.3125 L 112.824219 147.734375 C 112.753906 150.113281 112.175781 151.40625 108 151.625 L 108 153.28125 L 124.417969 153.28125 C 124.417969 152.777344 124.417969 152.128906 124.417969 151.625 C 121.753906 151.335938 119.878906 151.480469 119.59375 147.878906 L 119.59375 130.382813 L 136.582031 130.382813 C 136.582031 136.144531 136.582031 141.902344 136.582031 147.664063 C 136.511719 151.550781 133.992188 151.265625 131.617188 151.625 L 131.617188 153.28125 L 148.175781 153.28125 L 148.175781 151.625 C 146.015625 151.550781 143.425781 151.335938 143.28125 147.734375 L 143.28125 130.382813 C 149.328125 130.382813 155.449219 130.382813 161.496094 130.382813 C 153.792969 156.015625 140.398438 173.585938 127.871094 190.070313 C 116.0625 175.601563 101.519531 154.792969 93.816406 130.3125 "/>
<g clip-path="url(#clip1)" clip-rule="nonzero">
<path style=" stroke:none;fill-rule:nonzero;fill:rgb(21.598816%,23.098755%,59.199524%);fill-opacity:1;" d="M 0 120.378906 L 28.726563 120.378906 C 29.664063 111.878906 31.105469 103.816406 33.40625 96.546875 C 48.097656 50.105469 88.703125 27.855469 128.015625 28.359375 C 174.960938 28.9375 219.671875 63.640625 224.0625 120.519531 L 252.71875 120.59375 C 252.289063 116.417969 252 112.382813 251.425781 108.425781 C 250.558594 102.089844 249.335938 96.039063 247.609375 90.28125 C 239.6875 63.785156 225.144531 44.054688 207.574219 29.367188 C 179.566406 5.894531 142.488281 -3.824219 107.566406 1.359375 C 54.359375 9.210938 5.902344 50.464844 0 120.378906 "/>
</g>
<g clip-path="url(#clip2)" clip-rule="nonzero">
<path style=" stroke:none;fill-rule:nonzero;fill:rgb(90.99884%,15.299988%,24.699402%);fill-opacity:1;" d="M 0.0703125 131.320313 C 9.648438 131.320313 19.007813 131.535156 28.65625 131.535156 C 41.902344 256.886719 214.273438 252.28125 223.921875 131.394531 L 252.71875 131.394531 C 251.929688 140.105469 250.921875 149.394531 249.121094 156.230469 C 217.007813 280.71875 47.375 284.679688 6.625 166.167969 C 3.167969 156.160156 1.367188 143.992188 0.0703125 131.320313 "/>
</g>
<path style=" stroke:none;fill-rule:nonzero;fill:rgb(100%,100%,100%);fill-opacity:1;" d="M 33.910156 196.265625 C 31.464844 197.34375 29.015625 197.5625 27.359375 195.257813 C 24.984375 192.015625 27.9375 189.0625 31.03125 186.976563 C 31.96875 186.328125 32.902344 185.753906 33.910156 185.320313 L 33.910156 180.929688 C 32.113281 181.359375 30.238281 182.222656 28.511719 183.449219 C 25.128906 185.753906 22.96875 188.632813 22.753906 191.730469 L 22.753906 192.664063 C 22.824219 194.105469 23.398438 195.6875 24.550781 197.199219 C 27 200.511719 30.382813 201.449219 33.910156 200.585938 Z M 40.464844 186.257813 C 42.839844 189.496094 39.816406 192.519531 36.71875 194.609375 C 35.855469 195.183594 34.847656 195.761719 33.910156 196.265625 L 33.910156 200.585938 C 35.710938 200.152344 37.511719 199.289063 39.3125 198.0625 C 42.625 195.761719 44.855469 192.878906 45 189.855469 L 45 188.917969 C 44.925781 187.40625 44.351563 185.894531 43.199219 184.382813 C 40.753906 181 37.441406 180.136719 33.910156 180.929688 L 33.910156 185.320313 C 36.289063 184.242188 38.734375 183.953125 40.464844 186.257813 "/>
<path style=" stroke:none;fill-rule:nonzero;fill:rgb(100%,100%,100%);fill-opacity:1;" d="M 49.105469 205.191406 C 47.734375 205.121094 46.65625 203.609375 45.503906 202.601563 L 49.105469 199.144531 L 49.105469 193.457031 L 33.984375 208.070313 L 36.9375 210.953125 L 42.910156 205.121094 L 45.070313 207.136719 C 46.367188 208.289063 47.734375 208.9375 49.105469 209.152344 Z M 49.894531 198.351563 C 51.480469 200.007813 54.214844 201.378906 51.480469 204.113281 C 50.542969 204.976563 49.753906 205.265625 49.105469 205.191406 L 49.105469 209.152344 C 51.046875 209.441406 52.992188 208.71875 54.648438 207.0625 C 56.160156 205.625 56.808594 204.183594 56.878906 202.886719 L 56.878906 202.382813 C 56.808594 200.511719 55.511719 198.710938 53.785156 197.054688 L 49.535156 193.023438 L 49.105469 193.457031 L 49.105469 199.144531 L 49.894531 198.351563 "/>
<path style=" stroke:none;fill-rule:nonzero;fill:rgb(100%,100%,100%);fill-opacity:1;" d="M 59.902344 219.449219 L 61.992188 216.566406 L 68.542969 220.960938 L 62.207031 229.671875 C 60.769531 229.3125 59.398438 228.734375 58.105469 228.015625 C 57.238281 227.585938 56.375 227.152344 54.289063 225.710938 C 51.191406 223.625 48.457031 218.585938 53.421875 211.671875 C 58.464844 204.761719 64.367188 205.480469 67.535156 207.640625 C 72.070313 210.734375 73.871094 214.191406 70.847656 218.296875 L 67.175781 215.847656 C 68.832031 213.6875 68.039063 212.03125 66.167969 210.734375 C 63.144531 208.71875 59.902344 210.160156 57.097656 214.121094 C 54.214844 218.007813 53.925781 221.464844 56.953125 223.480469 C 58.246094 224.417969 59.328125 224.777344 60.335938 225.210938 L 63 221.535156 L 59.902344 219.449219 "/>
<path style=" stroke:none;fill-rule:nonzero;fill:rgb(100%,100%,100%);fill-opacity:1;" d="M 67.03125 232.839844 L 68.976563 229.382813 L 72 230.894531 L 70.054688 234.351563 L 67.03125 232.839844 "/>
<path style=" stroke:none;fill-rule:nonzero;fill:rgb(100%,100%,100%);fill-opacity:1;" d="M 88.273438 223.265625 C 90.144531 223.121094 91.945313 222.617188 93.671875 221.894531 L 97.273438 223.046875 L 90.648438 242.34375 L 86.832031 241.121094 L 92.015625 226 C 90.359375 226.578125 88.703125 227.007813 86.976563 227.152344 L 88.273438 223.265625 "/>
<path style=" stroke:none;fill-rule:nonzero;fill:rgb(100%,100%,100%);fill-opacity:1;" d="M 115.777344 245.511719 C 115.558594 245.585938 115.273438 245.585938 115.054688 245.511719 C 110.953125 245.152344 110.59375 240.976563 110.878906 237.378906 C 111.238281 233.992188 112.320313 230.175781 115.777344 230.03125 L 115.777344 226.71875 C 110.085938 226.71875 107.0625 231.113281 106.488281 236.945313 C 105.914063 243.207031 108.359375 248.25 114.695313 248.75 C 115.054688 248.824219 115.417969 248.824219 115.777344 248.824219 Z M 116.496094 230.105469 C 120.601563 230.464844 120.960938 234.566406 120.671875 238.242188 C 120.3125 241.625 119.304688 245.367188 115.777344 245.511719 L 115.777344 248.824219 C 121.464844 248.824219 124.488281 244.503906 125.0625 238.601563 C 125.136719 238.023438 125.136719 237.449219 125.136719 236.945313 L 125.136719 236.871094 C 125.136719 231.472656 122.617188 227.296875 116.855469 226.792969 C 116.496094 226.71875 116.136719 226.71875 115.777344 226.71875 L 115.777344 230.03125 C 115.992188 230.03125 116.28125 230.03125 116.496094 230.105469 "/>
<path style=" stroke:none;fill-rule:nonzero;fill:rgb(100%,100%,100%);fill-opacity:1;" d="M 139.96875 233.847656 C 139.753906 231.542969 138.382813 229.886719 135.863281 230.105469 C 132.984375 230.320313 132.625 235.214844 132.914063 238.167969 C 133.128906 241.121094 134.351563 245.800781 137.304688 245.585938 C 139.753906 245.367188 140.832031 243.496094 140.617188 241.265625 L 145.007813 240.902344 C 145.296875 246.234375 142.054688 248.464844 137.59375 248.824219 C 131.976563 249.328125 129.023438 244.648438 128.449219 238.527344 C 127.945313 232.335938 130.03125 227.296875 135.648438 226.792969 C 140.039063 226.433594 143.710938 228.160156 144.359375 233.417969 L 139.96875 233.847656 "/>
<path style=" stroke:none;fill-rule:nonzero;fill:rgb(100%,100%,100%);fill-opacity:1;" d="M 145.152344 225.855469 L 160.34375 222.183594 L 161.28125 225.640625 L 155.664063 227.007813 L 160.054688 244.144531 L 156.023438 245.152344 L 151.632813 227.945313 L 146.015625 229.3125 L 145.152344 225.855469 "/>
<path style=" stroke:none;fill-rule:nonzero;fill:rgb(100%,100%,100%);fill-opacity:1;" d="M 169.054688 221.753906 C 170.207031 220.382813 171.144531 218.800781 171.863281 217.144531 L 175.246094 215.5625 L 184.535156 233.847656 L 180.863281 235.578125 L 173.664063 221.175781 C 172.871094 222.761719 171.9375 224.128906 170.855469 225.421875 L 169.054688 221.753906 "/>
<path style=" stroke:none;fill-rule:nonzero;fill:rgb(100%,100%,100%);fill-opacity:1;" d="M 186.914063 220.242188 C 185.617188 221.894531 185.253906 224.273438 186.695313 226.433594 C 186.769531 226.503906 186.839844 226.648438 186.914063 226.71875 Z M 186.914063 209.007813 L 186.914063 212.25 C 186.40625 212.25 185.832031 212.390625 185.253906 212.753906 C 184.105469 213.472656 183.746094 214.984375 184.679688 216.351563 C 185.253906 217.214844 186.046875 217.648438 186.914063 217.578125 L 186.914063 220.097656 C 184.753906 220.671875 182.808594 220.242188 181.367188 218.082031 C 180.863281 217.359375 180.574219 216.566406 180.574219 215.777344 L 180.574219 215.199219 C 180.648438 213.183594 182.015625 211.242188 183.746094 210.160156 C 184.679688 209.585938 185.757813 209.152344 186.914063 209.007813 Z M 190.007813 224.199219 C 188.929688 222.542969 189.214844 220.886719 190.441406 220.097656 C 191.015625 219.734375 191.664063 219.664063 192.3125 219.734375 L 192.3125 216.929688 C 192.097656 217 191.878906 217 191.664063 217.070313 C 191.953125 216.855469 192.097656 216.640625 192.3125 216.351563 L 192.3125 211.527344 C 192.238281 211.382813 192.167969 211.3125 192.167969 211.242188 C 190.800781 209.296875 188.785156 208.71875 186.914063 209.007813 L 186.914063 212.25 C 187.777344 212.25 188.566406 212.679688 189.144531 213.542969 C 190.152344 214.914063 189.792969 216.351563 188.640625 217.070313 C 188.0625 217.433594 187.488281 217.578125 186.914063 217.578125 L 186.914063 220.097656 C 186.984375 220.097656 186.984375 220.097656 186.984375 220.097656 L 187.054688 220.097656 C 186.984375 220.167969 186.984375 220.242188 186.914063 220.242188 L 186.914063 226.71875 C 188.351563 228.664063 190.367188 229.3125 192.3125 229.167969 L 192.3125 225.855469 C 191.449219 225.710938 190.65625 225.136719 190.007813 224.199219 Z M 192.3125 216.351563 L 192.3125 211.527344 C 193.246094 213.113281 193.175781 215.054688 192.3125 216.351563 Z M 192.3125 219.734375 C 193.105469 219.953125 193.894531 220.527344 194.542969 221.390625 C 195.625 222.976563 195.40625 224.707031 194.183594 225.421875 C 193.535156 225.855469 192.886719 225.929688 192.3125 225.855469 L 192.3125 229.167969 C 193.535156 229.023438 194.757813 228.59375 195.839844 227.945313 C 197.566406 226.792969 198.792969 224.917969 198.9375 222.832031 L 198.9375 222.183594 C 198.863281 221.175781 198.574219 220.242188 197.929688 219.304688 C 196.558594 217.289063 194.398438 216.496094 192.3125 216.929688 L 192.3125 219.734375 "/>
<path style=" stroke:none;fill-rule:nonzero;fill:rgb(100%,100%,100%);fill-opacity:1;" d="M 198.71875 199.578125 L 198.71875 202.960938 C 198.070313 202.960938 197.351563 203.175781 196.703125 203.753906 C 195.695313 204.617188 195.625 206.128906 196.703125 207.351563 C 197.28125 208 198 208.359375 198.71875 208.359375 L 198.71875 211.023438 C 196.921875 211.601563 195.191406 211.242188 193.679688 209.511719 C 191.375 206.992188 192.601563 203.320313 194.902344 201.378906 C 195.914063 200.511719 197.28125 199.792969 198.71875 199.578125 Z M 203.183594 214.480469 C 201.816406 212.96875 201.886719 211.3125 202.96875 210.378906 C 203.617188 209.800781 204.40625 209.65625 205.199219 209.800781 L 205.199219 206.777344 C 204.695313 206.847656 204.191406 206.992188 203.757813 207.210938 L 203.757813 207.136719 C 205.054688 205.625 204.984375 203.105469 203.398438 201.378906 C 201.960938 199.792969 200.304688 199.359375 198.71875 199.578125 L 198.71875 202.960938 C 199.441406 203.03125 200.160156 203.320313 200.734375 203.96875 C 201.886719 205.265625 201.746094 206.707031 200.734375 207.566406 C 200.085938 208.070313 199.441406 208.359375 198.71875 208.359375 L 198.71875 211.023438 C 199.007813 210.953125 199.296875 210.878906 199.582031 210.734375 L 199.582031 210.808594 C 198.433594 212.535156 198.359375 215.054688 200.160156 217.070313 C 201.671875 218.730469 203.472656 219.304688 205.199219 219.160156 L 205.199219 215.707031 C 204.480469 215.5625 203.757813 215.128906 203.183594 214.480469 Z M 205.199219 209.800781 C 205.847656 209.945313 206.566406 210.378906 207.214844 211.097656 C 208.441406 212.464844 208.511719 214.191406 207.433594 215.128906 C 206.710938 215.707031 205.921875 215.917969 205.199219 215.707031 L 205.199219 219.160156 C 206.710938 219.089844 208.152344 218.367188 209.375 217.359375 C 211.824219 215.34375 212.832031 211.457031 210.3125 208.578125 C 208.871094 206.992188 207 206.417969 205.199219 206.777344 L 205.199219 209.800781 "/>
<path style=" stroke:none;fill-rule:nonzero;fill:rgb(100%,100%,100%);fill-opacity:1;" d="M 208.222656 197.199219 C 206.785156 195.902344 205.921875 194.175781 207.289063 192.808594 C 208.007813 192.089844 208.945313 192.089844 209.953125 192.519531 L 209.953125 188.917969 C 208.222656 188.777344 206.566406 189.28125 204.984375 190.863281 C 202.390625 193.457031 202.390625 197.417969 205.558594 200.296875 C 206.785156 201.449219 208.367188 202.097656 209.953125 202.167969 L 209.953125 198.351563 C 209.304688 198.136719 208.726563 197.707031 208.222656 197.199219 Z M 209.953125 192.519531 C 210.527344 192.808594 211.175781 193.242188 211.679688 193.746094 C 213.121094 195.039063 213.839844 196.625 212.617188 197.847656 C 211.824219 198.640625 210.816406 198.710938 209.953125 198.351563 L 209.953125 202.167969 C 211.464844 202.242188 212.902344 201.808594 213.984375 200.730469 C 215.0625 199.648438 215.566406 198.785156 215.566406 197.34375 C 217.367188 198.855469 220.464844 201.734375 218.449219 203.753906 C 217.65625 204.617188 216.289063 204.183594 215.207031 203.464844 L 212.398438 206.199219 C 215.640625 209.152344 218.304688 208.144531 220.679688 205.769531 C 221.832031 204.617188 222.40625 203.464844 222.480469 202.242188 L 222.480469 201.378906 C 222.265625 198.28125 219.167969 195.113281 216.359375 192.519531 C 214.273438 190.578125 212.039063 189.136719 209.953125 188.917969 L 209.953125 192.519531 "/>
<path style=" stroke:none;fill-rule:nonzero;fill:rgb(100%,100%,100%);fill-opacity:1;" d="M 42.121094 68.609375 L 24.769531 55.433594 L 27.289063 52.265625 L 34.199219 57.449219 L 38.664063 51.902344 L 31.824219 46.71875 L 34.414063 43.550781 L 51.769531 56.730469 L 49.246094 59.824219 L 41.617188 54.0625 L 37.082031 59.609375 L 44.710938 65.441406 L 42.121094 68.609375 "/>
<path style=" stroke:none;fill-rule:nonzero;fill:rgb(100%,100%,100%);fill-opacity:1;" d="M 54.433594 54.785156 L 51.480469 52.191406 L 53.785156 49.746094 L 56.734375 52.40625 L 54.433594 54.785156 "/>
<path style=" stroke:none;fill-rule:nonzero;fill:rgb(100%,100%,100%);fill-opacity:1;" d="M 58.96875 50.03125 L 44.566406 33.976563 L 54.070313 26.128906 L 56.449219 28.792969 L 50.113281 34.046875 L 53.566406 37.9375 L 59.472656 33.039063 L 61.847656 35.703125 L 55.945313 40.601563 L 62.136719 47.441406 L 58.96875 50.03125 "/>
<path style=" stroke:none;fill-rule:nonzero;fill:rgb(100%,100%,100%);fill-opacity:1;" d="M 66.671875 43.769531 L 64.222656 40.671875 L 66.960938 38.65625 L 69.40625 41.824219 L 66.671875 43.769531 "/>
<path style=" stroke:none;fill-rule:nonzero;fill:rgb(100%,100%,100%);fill-opacity:1;" d="M 74.160156 22.167969 C 73.082031 20.222656 71.0625 19.214844 68.902344 20.441406 C 66.3125 21.808594 68.039063 26.34375 69.550781 28.9375 C 71.0625 31.527344 74.160156 35.34375 76.753906 33.976563 C 78.910156 32.824219 79.054688 30.664063 77.902344 28.71875 L 81.792969 26.632813 C 84.238281 31.382813 82.296875 34.769531 78.40625 36.855469 C 73.511719 39.519531 68.832031 36.425781 65.664063 31.023438 C 62.566406 25.625 62.28125 20.152344 67.246094 17.5625 C 71.136719 15.472656 75.167969 15.546875 78.046875 20.152344 L 74.160156 22.167969 "/>
<path style=" stroke:none;fill-rule:nonzero;fill:rgb(100%,100%,100%);fill-opacity:1;" d="M 87.265625 32.175781 L 85.753906 28.574219 L 88.921875 27.351563 L 90.433594 30.953125 L 87.265625 32.175781 "/>
<path style=" stroke:none;fill-rule:nonzero;fill:rgb(100%,100%,100%);fill-opacity:1;" d="M 99.574219 27.929688 L 95.6875 6.976563 L 99.792969 6.257813 L 101.375 14.535156 L 108.574219 13.3125 L 107.0625 5.03125 L 111.167969 4.382813 L 115.054688 25.265625 L 110.953125 25.910156 L 109.296875 16.769531 L 102.023438 17.992188 L 103.679688 27.210938 L 99.574219 27.929688 "/>
<path style=" stroke:none;fill-rule:nonzero;fill:rgb(100%,100%,100%);fill-opacity:1;" d="M 122.757813 16.984375 L 125.566406 7.984375 L 125.566406 3.734375 L 123.191406 3.734375 L 116.351563 25.046875 L 120.3125 24.976563 L 121.753906 20.511719 L 125.566406 20.441406 L 125.566406 16.910156 Z M 125.566406 7.984375 L 125.566406 7.910156 L 125.640625 7.910156 L 128.304688 16.910156 L 125.566406 16.910156 L 125.566406 20.441406 L 129.382813 20.441406 L 130.824219 24.902344 L 135.070313 24.902344 L 128.085938 3.734375 L 125.566406 3.734375 L 125.566406 7.984375 "/>
<path style=" stroke:none;fill-rule:nonzero;fill:rgb(100%,100%,100%);fill-opacity:1;" d="M 142.703125 17.921875 L 145.441406 12.519531 L 145.441406 4.960938 L 145.367188 4.960938 L 134.929688 24.832031 L 138.816406 25.480469 L 141.046875 21.230469 L 145.441406 21.953125 L 145.441406 18.351563 Z M 145.441406 12.519531 L 147.023438 9.425781 L 148.175781 18.785156 L 145.441406 18.351563 L 145.441406 21.953125 L 148.609375 22.457031 L 149.183594 27.136719 L 153.359375 27.785156 L 150.265625 5.753906 L 145.441406 4.960938 L 145.441406 12.519531 "/>
<path style=" stroke:none;fill-rule:nonzero;fill:rgb(100%,100%,100%);fill-opacity:1;" d="M 166.105469 25.695313 L 166.105469 32.320313 L 164.59375 31.816406 C 165.023438 29.871094 165.457031 28.070313 166.03125 26.199219 C 166.03125 26.054688 166.105469 25.839844 166.105469 25.695313 Z M 164.519531 12.878906 L 166.105469 13.457031 L 166.105469 9.710938 L 161.855469 8.199219 L 154.222656 28.144531 L 158.183594 29.511719 L 161.207031 21.449219 L 165.382813 22.960938 C 165.746094 23.105469 165.960938 23.320313 166.105469 23.679688 L 166.105469 19.433594 C 166.03125 19.433594 165.886719 19.359375 165.746094 19.289063 L 162.503906 18.136719 Z M 166.105469 13.457031 L 167.757813 14.03125 C 169.488281 14.679688 170.207031 15.761719 169.558594 17.5625 C 168.914063 19.214844 167.6875 19.792969 166.105469 19.433594 L 166.105469 23.679688 C 166.390625 24.257813 166.320313 24.976563 166.105469 25.695313 L 166.105469 32.320313 L 168.914063 33.328125 C 168.625 31.960938 169.417969 29.511719 169.703125 28.214844 C 170.425781 25.335938 171.144531 23.320313 168.265625 21.878906 L 168.335938 21.878906 C 170.785156 22.097656 172.945313 20.945313 173.953125 18.351563 C 174.167969 17.703125 174.3125 17.128906 174.382813 16.625 L 174.382813 15.6875 C 174.097656 13.238281 171.9375 11.800781 169.558594 10.9375 L 166.105469 9.710938 L 166.105469 13.457031 "/>
<path style=" stroke:none;fill-rule:nonzero;fill:rgb(100%,100%,100%);fill-opacity:1;" d="M 170.28125 34.191406 L 181.367188 15.832031 L 184.96875 17.847656 L 175.753906 33.113281 L 183.023438 37.214844 L 181.152344 40.238281 L 170.28125 34.191406 "/>
<path style=" stroke:none;fill-rule:nonzero;fill:rgb(100%,100%,100%);fill-opacity:1;" d="M 196.273438 24.6875 L 206.207031 32.679688 L 203.902344 35.414063 L 197.0625 29.945313 L 193.824219 33.761719 L 200.160156 38.871094 L 197.785156 41.609375 L 191.449219 36.425781 L 187.632813 40.816406 L 194.6875 46.433594 L 192.3125 49.167969 L 182.085938 40.960938 L 196.273438 24.6875 "/>
<path style=" stroke:none;fill-rule:nonzero;fill:rgb(100%,100%,100%);fill-opacity:1;" d="M 202.609375 60.113281 L 200.449219 57.519531 L 211.753906 42.113281 L 211.679688 42.113281 L 197.136719 53.703125 L 194.6875 50.824219 L 211.679688 37.289063 L 216 42.328125 L 206.207031 55.214844 L 206.28125 55.214844 L 221.398438 48.664063 L 225.574219 53.5625 L 208.582031 67.097656 L 206.136719 64.144531 L 220.679688 52.625 L 220.679688 52.550781 L 202.609375 60.113281 "/>
</g>
</svg>
